<?xml version="1.0" standalone="yes"?>
<svg version="1.1" viewBox="-150 -1150 3900 1300" xmlns="http://www.w3.org/2000/svg">
	<polygon points="-250,-1250 5500,-1250 5500,250 -250,250" fill="#ffffff" />
	<polygon points="0,-1000 1000,-1000 1000,0 0,0" fill="#000000" />
	<polygon points="790,-125 875,-125 875,-900 790,-900" fill="#a5b2eb" />
	<polygon points="458,-900 542,-900 542,-500 458,-500" fill="#a5b2eb" />
	<polygon points="790,-900 875,-815 542,-500 458,-585" fill="#a5b2eb" />
	<polygon points="125,-500 210,-500 542,-815 458,-900 125,-585" fill="#a5b2eb" />
	<circle cx="292" cy="-292" r="160" fill="#a5b2eb" />
	<circle cx="292" cy="-292" r="81" fill="#000000" />
	<circle cx="708" cy="-292" r="160" fill="#a5b2eb" />
	<circle cx="708" cy="-292" r="81" fill="#000000" />
	<polygon points="292,-292 500,-208 500,-375" fill="#000000" />
	<text x="1150" y="-640" font-size="370">McdJS</text>
	<polygon points="1150,-580 1150,-550 2900,-550 2900,-580" fill="#a5b2eb" />
	<text x="1150" y="-390" font-size="130">JavaScript</text>
	<text x="1150" y="-280" font-size="100">minecraft command generator</text>
	<text x="1150" y="-170" font-size="80">with</text>
	<text x="1360" y="-170" font-size="100">the idea</text>
	<text x="1150" y="-50" font-size="80">of</text>
	<text x="1280" y="-50" font-size="120" style="font-style:italic;">the Minecraft Command Design</text>
</svg>